<svg version="1.0" xmlns="http://www.w3.org/2000/svg" width="1440" height="1440" viewBox="0 0 1080 1080">
  <path d="m516 21-27 22c-2 1-4 0-32-15l-30-16-42 54a1328 1328 0 0 1-66-18l-15 30c-14 30-14 30-17 30a2976 2976 0 0 1-66-4l-8 33-9 32-34 5-34 5a1695 1695 0 0 0-2 68l-32 11-31 12 5 34 6 33a2121 2121 0 0 1-57 35c-1 1 1 7 11 32l13 32-24 24-24 24a4017 4017 0 0 0 37 56 411 411 0 0 1-37 56l24 24 24 24-13 32c-10 25-12 30-11 31a978 978 0 0 0 57 36 725 725 0 0 1-11 67l31 11 32 12 1 34 1 34 34 5 34 4 9 33 8 33a645 645 0 0 0 66-4c3 0 3 0 17 30l15 30a1328 1328 0 0 1 67-18c1 3 40 53 41 53l30-15 30-16 27 22 26 22 26-22 27-22a1518 1518 0 0 1 60 32l42-54a1328 1328 0 0 1 66 18l15-30c14-30 14-30 17-30a2811 2811 0 0 1 66 4l8-33 8-33 35-4 34-5a1695 1695 0 0 0 2-68l32-12 31-11-5-34-6-34 28-17 29-18c1-1-1-6-11-31l-13-32 24-24 24-24a1816 1816 0 0 0-37-56 411 411 0 0 1 37-56l-24-24-24-24 13-32c10-25 12-30 11-31l-29-18-28-17a691 691 0 0 1 11-68l-31-11-32-12-2-34v-34l-35-5-34-4-8-33-8-33a653 653 0 0 0-66 4c-3 0-3 0-17-30l-15-30a1328 1328 0 0 1-66 18l-42-53-30 15-31 16a902 902 0 0 1-52-44l-25 21z"/>
</svg>
